<svg xmlns="http://www.w3.org/2000/svg" viewBox="0 0 48 48" fill="none" stroke="currentColor" stroke-width="1.5" stroke-linecap="round" stroke-linejoin="round">
  <!-- プロペラ+ワイヤー -->
  <path d="M20 30L10 14"/>
  <!-- プロペラ -->
  <circle cx="10" cy="12" r="2"/>
  <path d="M4 8l6 4-6 4"/>
  <path d="M16 8l-6 4 6 4"/>
  <!-- ヘッド+スカート -->
  <ellipse cx="22" cy="30" rx="6" ry="4"/>
  <path d="M16 32c-1 3-1 7 0 8"/>
  <path d="M20 33c0 3 0 6 0 8"/>
  <path d="M24 33c0 3 0 6 0 8"/>
  <path d="M28 32c1 3 1 7 0 8"/>
  <!-- フック -->
  <path d="M28 30c4 0 8 2 8 4s-2 4-4 4"/>
</svg>
