<svg xmlns="http://www.w3.org/2000/svg" viewBox="0 0 48 48" fill="none" stroke="currentColor" stroke-width="1.5" stroke-linecap="round" stroke-linejoin="round">
  <!-- ブレード付きジグ -->
  <ellipse cx="24" cy="28" rx="8" ry="5"/>
  <path d="M16 30c-2 3-3 6-2 8"/>
  <path d="M20 31c-1 3-1 7 0 9"/>
  <path d="M24 32c0 3 0 7 0 8"/>
  <path d="M28 31c1 3 1 7 0 9"/>
  <path d="M32 30c2 3 3 6 2 8"/>
  <line x1="24" y1="23" x2="24" y2="16"/>
  <path d="M18 8c-1-2 1-4 3-3l6 4c2 1 2 4 0 5l-6 3c-2 1-4-1-3-3z"/>
  <line x1="24" y1="16" x2="21" y2="12"/>
</svg>
