<svg xmlns="http://www.w3.org/2000/svg" viewBox="0 0 48 48" fill="none" stroke="currentColor" stroke-width="1.5" stroke-linecap="round" stroke-linejoin="round">
  <!-- 2-3分割のジョイントボディ -->
  <path d="M4 24c0-4 2-7 6-7h5c2 0 3 3 3 7s-1 7-3 7H10c-4 0-6-3-6-7z"/>
  <line x1="18" y1="18" x2="18" y2="30"/>
  <path d="M18 19c2-1 4-2 6-2 3 0 5 3 5 7s-2 7-5 7c-2 0-4-1-6-2"/>
  <line x1="29" y1="19" x2="29" y2="29"/>
  <path d="M29 20c2-1 4-2 6-2 4 0 6 2 6 6s-2 6-6 6c-2 0-4-1-6-2"/>
  <circle cx="37" cy="22" r="1.5"/>
  <path d="M41 21c2-2 4-1 4 0"/>
  <path d="M41 27c2 2 4 1 4 0"/>
</svg>
