<svg xmlns="http://www.w3.org/2000/svg" viewBox="0 0 48 48" fill="none" stroke="currentColor" stroke-width="1.5" stroke-linecap="round" stroke-linejoin="round">
  <!-- プロペラ付き -->
  <!-- ボディ -->
  <path d="M10 24c0-4 3-7 10-7h8c5 0 8 3 8 7s-3 7-8 7h-8c-7 0-10-3-10-7z"/>
  <circle cx="32" cy="22" r="1.5"/>
  <!-- フロントプロペラ -->
  <line x1="10" y1="24" x2="6" y2="24"/>
  <path d="M2 20l4 4-4 4"/>
  <path d="M10 20l-4 4 4 4"/>
  <!-- リアプロペラ -->
  <line x1="36" y1="24" x2="40" y2="24"/>
  <path d="M38 20l4 4-4 4"/>
  <path d="M46 20l-4 4 4 4"/>
</svg>
