<svg xmlns="http://www.w3.org/2000/svg" viewBox="0 0 48 48" fill="none" stroke="currentColor" stroke-width="1.5" stroke-linecap="round" stroke-linejoin="round">
  <!-- ジグヘッド+ラバースカート -->
  <circle cx="24" cy="14" r="6"/>
  <circle cx="24" cy="14" r="1"/>
  <path d="M24 20v4"/>
  <path d="M16 24c-3 6-4 12-2 16"/>
  <path d="M19 24c-2 6-2 12 0 16"/>
  <path d="M22 24c-1 6 0 12 1 16"/>
  <path d="M26 24c1 6 0 12-1 16"/>
  <path d="M29 24c2 6 2 12 0 16"/>
  <path d="M32 24c3 6 4 12 2 16"/>
  <path d="M30 14c4 2 8 6 8 10s-2 4-4 2"/>
</svg>
