<svg xmlns="http://www.w3.org/2000/svg" viewBox="0 0 48 48" fill="none" stroke="currentColor" stroke-width="1.5" stroke-linecap="round" stroke-linejoin="round">
  <!-- ワイヤー+ブレード+スカート -->
  <path d="M20 28L12 10"/>
  <ellipse cx="10" cy="8" rx="5" ry="3" transform="rotate(-20 10 8)"/>
  <path d="M20 28l8-18"/>
  <ellipse cx="30" cy="8" rx="4" ry="2.5" transform="rotate(20 30 8)"/>
  <ellipse cx="20" cy="30" rx="6" ry="4"/>
  <path d="M14 32c-2 4-3 8-2 10"/>
  <path d="M18 33c-1 4-1 8 0 10"/>
  <path d="M22 33c1 4 1 8 0 10"/>
  <path d="M26 32c2 4 3 8 2 10"/>
  <line x1="20" y1="26" x2="20" y2="22"/>
</svg>
