<svg xmlns="http://www.w3.org/2000/svg" viewBox="0 0 48 48" fill="none" stroke="currentColor" stroke-width="1.5" stroke-linecap="round" stroke-linejoin="round">
  <!-- イカ用スッテ -->
  <path d="M14 14c0-2 2-4 6-4h4c4 0 6 2 6 4v16c0 2-2 4-6 4h-4c-4 0-6-2-6-4z"/>
  <line x1="14" y1="20" x2="30" y2="20"/>
  <line x1="14" y1="26" x2="30" y2="26"/>
  <!-- 傘針 -->
  <path d="M16 34l-2 4"/>
  <path d="M20 34l-1 5"/>
  <path d="M24 34l1 5"/>
  <path d="M28 34l2 4"/>
  <!-- アイ -->
  <line x1="22" y1="10" x2="22" y2="6"/>
  <circle cx="22" cy="5" r="1"/>
</svg>
