<svg xmlns="http://www.w3.org/2000/svg" viewBox="0 0 48 48" fill="none" stroke="currentColor" stroke-width="1.5" stroke-linecap="round" stroke-linejoin="round">
  <!-- タイラバ（ヘッド+ネクタイ+スカート） -->
  <!-- ヘッド -->
  <ellipse cx="24" cy="12" rx="8" ry="6"/>
  <line x1="24" y1="6" x2="24" y2="3"/>
  <circle cx="24" cy="2.5" r="1"/>
  <!-- ネクタイ（長い2本） -->
  <path d="M20 18c-2 8-4 16-3 24"/>
  <path d="M28 18c2 8 4 16 3 24"/>
  <!-- スカート（短い束） -->
  <path d="M22 18c-1 6-1 12 0 16"/>
  <path d="M26 18c1 6 1 12 0 16"/>
  <path d="M18 18c-3 4-5 8-4 14"/>
  <path d="M30 18c3 4 5 8 4 14"/>
  <!-- フック -->
  <path d="M24 18v6"/>
</svg>
