<svg xmlns="http://www.w3.org/2000/svg" viewBox="0 0 48 48" fill="currentColor"><path d="M6 24c0-3 2-6 5-8s7-3 11-3c3 0 6 .8 9 2.5s5.5 3.5 7 5c1 1 2 1.5 3.5 1.5h.5c.5 0 .8.3.5.7-1 1.5-3 3-5 3.8-1.5.6-3 .8-4.5.5-2-.3-4-1.2-6-2.5-2-1.2-4-2-6-2.2-2.5-.3-5 .3-7 1.5s-3.5 3-4 4.5c-.3.7-.8.7-1.3.3C7 26.5 6 25.5 6 24zm6-5a1 1 0 1 0 0 2 1 1 0 0 0 0-2z"/><path d="M16 13c1.5-2.5 3.5-4 5.5-4.5.3-.1.5.1.4.4-.5 1.5-1 3-1.2 4.5-.1.5-.3.8-.8.8H17c-.4 0-.7-.2-.6-.6l-.4-.6z"/><path d="M39 20.5c1.5-2 3-3.5 4.5-4.3.3-.1.5.1.4.4-.3 1.5-.5 3-.5 4.2 0 1.3.2 2.8.5 4.2.1.3-.1.5-.4.4-1.5-.8-3-2.3-4.5-4.2-.2-.2-.2-.5 0-.7z"/></svg>
