<svg xmlns="http://www.w3.org/2000/svg" viewBox="0 0 48 48" fill="currentColor"><path d="M3 24c0-2 1.5-4 4-5.5 2.8-1.8 6.5-2.8 10.5-3 3.5-.2 7 .3 10.5 1.5 3.5 1.2 6.5 3 9 4.5 1.2.7 2.3 1 3.5 1 .8 0 1.5-.1 2-.3.4-.1.6.2.4.5-.7 1.2-1.8 2.3-3.2 3-1 .5-2 .7-3.2.5-1.5-.2-3-.8-4.5-1.8-2-1.2-4.2-2.3-6.5-3-2.8-.8-5.5-1-8.2-.5-3 .5-5.8 1.8-8 3.5-1 .8-2 1.5-2.8 1.8-.5.2-1 0-1.3-.5S3 25 3 24zm6.5-4a.8.8 0 1 0 0 1.6.8.8 0 0 0 0-1.6z"/><path d="M17 14c1.5-2 3.5-3.2 5.5-3.5.3 0 .5.2.4.5l-.8 2.5c-.1.3-.3.5-.7.5h-3.5c-.3 0-.5-.3-.4-.5l-.5.5z"/><path d="M40 21.5c1.5-1.5 3.2-2.5 5-3 .3-.1.5.1.4.4-.3 1-.4 2-.4 3s.1 2 .4 3c.1.3-.1.5-.4.4-1.8-.5-3.5-1.5-5-3-.2-.2-.2-.6 0-.8z"/></svg>
