<svg xmlns="http://www.w3.org/2000/svg" viewBox="0 0 48 48" fill="currentColor"><path d="M4 26c0-1 .8-2 2-3 1.5-1.2 3.5-2 6-2.5 3-.5 6.5-.3 10 .5 4 .8 7.5 2 10.5 3 2 .7 3.8 1 5.2.8 1-.1 1.8-.4 2.5-.8.3-.2.5 0 .5.3-.3 1.5-1.2 2.8-2.5 3.5-1 .5-2 .8-3.2.7-1.5-.1-3.2-.5-5-1.3-2.5-1-5-1.8-7.5-2.2-3-.5-6-.3-8.5.5-2 .7-3.8 1.5-5 2.5-.8.5-1.5.8-2 .8-.5 0-1-.3-1.5-.8S4 27 4 26zm7-2a.8.8 0 1 0 0 1.6.8.8 0 0 0 0-1.6z"/><path d="M18 21c2-1.2 4.2-1.8 6.2-1.8.3 0 .5.2.3.5-.5.8-1 1.5-1.2 2-.1.3-.3.5-.6.4l-4.2-.3c-.3 0-.5-.3-.3-.5l-.2-.3z"/><path d="M39 25.5c1.5-.8 3-1.2 4.5-1.2.3 0 .5.2.4.5-.3.8-.4 1.5-.4 2.2 0 .7.1 1.5.4 2.2.1.3-.1.5-.4.5-1.5 0-3-.4-4.5-1.2-.3-.2-.3-2.8 0-3z"/></svg>
