<svg xmlns="http://www.w3.org/2000/svg" viewBox="0 0 48 48" fill="currentColor"><path d="M3 24c0-1.8 1.2-3.5 3.5-5 2.5-1.5 6-2.5 10-2.8 3.5-.2 7 .2 10.5 1.2 3.5 1 6.5 2.5 9 4 1.5.8 2.8 1.2 4 1.2.8 0 1.5-.2 2-.4.3-.1.5.1.4.4-.5 1.2-1.5 2.2-3 3-1 .5-2 .7-3 .5-1.5-.2-3-.7-4.5-1.5-2.2-1.2-4.5-2.3-7-3-3-.8-6-1-9-.5-3 .5-5.5 1.5-7.5 3-1 .8-2 1.3-2.5 1.5-.5.2-1 0-1.3-.5S3 25 3 24zm6-3.5a.8.8 0 1 0 0 1.6.8.8 0 0 0 0-1.6z"/><path d="M17 15c1.5-1.8 3.2-3 5.2-3.2.3 0 .5.2.4.5-.3 1-.6 2-.7 3-.1.4-.3.5-.6.5h-3.5c-.3 0-.5-.2-.5-.5l-.3-.3z"/><path d="M40 22c1.5-1.3 3-2.2 4.8-2.5.3 0 .5.2.4.4-.3 1-.4 1.8-.4 2.8 0 1 .1 1.8.4 2.8.1.3-.1.5-.4.4-1.8-.3-3.3-1.2-4.8-2.5-.2-.2-.2-.7 0-.9z"/></svg>
