<svg xmlns="http://www.w3.org/2000/svg" viewBox="0 0 48 48" fill="currentColor"><path d="M8 24c0-3.5 2.5-7 6-9s7.5-2.5 10.5-1.5c2.5.8 5 2.2 7 4 1.8 1.5 3.5 2.8 5 3.5 1 .5 2 .7 3 .5.5-.1.7.2.5.5-.8 1.2-2 2.3-3.5 3-1 .4-2 .5-3 .2-1.5-.5-3-1.3-4.5-2.5-2-1.5-4-2.8-6-3.5-2.5-.8-5-.8-7.2 0-2.5.8-4.5 2.5-5.8 4.5-.6 1-1.2 1.5-1.8 1.5-.5 0-1-.5-1.5-1.2S8 25.5 8 24zm6-5a1 1 0 1 0 0 2 1 1 0 0 0 0-2z"/><path d="M18 13c1-2.5 2.5-4 4.5-4.8.3-.1.5.1.5.4-.2 1.5-.5 3-.5 4 0 .4-.2.6-.6.6h-3c-.4 0-.6-.2-.6-.5l-.3.3z"/><path d="M36 22c1.5-2 3.2-3.2 5-3.5.3-.1.5.1.4.4-.3 1.2-.5 2.3-.5 3.5 0 1.2.2 2.3.5 3.5.1.3-.1.5-.4.4-1.8-.3-3.5-1.5-5-3.5-.2-.3-.2-1 0-1.3z"/></svg>
