<svg xmlns="http://www.w3.org/2000/svg" viewBox="0 0 48 48" fill="currentColor"><path d="M7 24c0-3 2-6 5.5-8s7.5-2.5 11-2c3 .5 5.5 1.5 8 3.2 2.2 1.5 4 3 5.5 4 1 .7 2 1 3 1 .7 0 1.2-.1 1.8-.3.3-.1.5.1.4.4-.5 1.3-1.5 2.5-3 3.3-1 .5-2 .7-3 .5-1.5-.2-2.8-.8-4.2-1.8-1.8-1.2-3.5-2.2-5.5-3-2.2-.7-4.5-.8-6.8-.2-2.5.5-4.5 1.8-6 3.5-.8 1-1.5 1.5-2 1.7-.5.2-1 0-1.3-.5S7 25.2 7 24zm5-5a1.3 1.3 0 1 0 0 2.6 1.3 1.3 0 0 0 0-2.6z"/><path d="M16 13.5c1.2-2 3-3.5 5-4 .3-.1.5.1.4.4-.3 1.2-.7 2.5-.8 3.5-.1.5-.3.7-.7.7H17c-.3 0-.5-.2-.5-.5l-.5-.1z"/><path d="M38 21c1.3-1.5 2.8-2.5 4.5-3 .3-.1.5.1.4.4-.2 1-.3 2-.3 3s.1 2 .3 3c.1.3-.1.5-.4.4-1.7-.5-3.2-1.5-4.5-3-.2-.2-.2-.5 0-.8z"/></svg>
