<svg xmlns="http://www.w3.org/2000/svg" viewBox="0 0 48 48" fill="currentColor"><path d="M4 24c0-2 1.5-4.5 4-6.5S14 14 18 13.5c3-.4 6 0 9 1s6 2.8 8.5 4.5c1.5 1 3 1.8 4.5 2 1 .2 2 .2 3 0 .4-.1.6.2.4.5-.8 1.5-2 2.8-3.5 3.8-1.2.7-2.5 1-3.8.8-1.8-.2-3.5-1-5.2-2.2-2-1.3-4-2.3-6.2-2.8-2.5-.5-5-.3-7.2.5-2.5 1-4.5 2.5-6 4.5-.5.7-1 1-1.5 1-.8 0-1.5-.5-2.2-1.2S4 25.5 4 24zm6.5-5.5a1 1 0 1 0 0 2 1 1 0 0 0 0-2z"/><path d="M17 12.5c1.5-1.5 3.2-2.5 5-2.8.3-.1.5.1.4.4-.3 1-.5 2-.7 3-.1.5-.4.7-.8.7h-3.2c-.3 0-.5-.2-.5-.5l-.2-.8z"/><path d="M40 21c1.5-1.8 3.2-3 5-3.5.3-.1.5.1.4.4-.3 1.5-.5 2.8-.5 4s.2 2.5.5 4c.1.3-.1.5-.4.4-1.8-.5-3.5-1.7-5-3.5-.3-.3-.3-1.5 0-1.8z"/></svg>
