<svg xmlns="http://www.w3.org/2000/svg" viewBox="0 0 48 48" fill="currentColor"><path d="M5 24c0-2.5 2-5 5-7s7-3 10.5-3c3 0 6 .5 8.5 1.8 3 1.5 5.5 3.2 7.5 4.8 1.2.8 2.5 1.3 3.8 1.4 1 .1 1.8 0 2.5-.3.3-.1.5.1.4.4-.5 1.5-1.5 2.8-3 3.8-1 .7-2.2 1-3.5.8-1.5-.2-3-.8-4.5-1.8-2-1.3-4.2-2.5-6.5-3.2-2.5-.8-5-.8-7.5-.2-2.8.7-5 2-6.8 4-1 1-1.8 2-2.2 2.5-.3.4-.8.4-1.2 0C6.5 26.5 5 25.5 5 24zm6-5.2a1 1 0 1 0 0 2 1 1 0 0 0 0-2z"/><path d="M18 13c1-1.8 2.5-3 4.2-3.5.3-.1.5.1.4.4l-.5 2.5c-.1.4-.3.6-.7.6h-2.8c-.3 0-.5-.2-.4-.5l-.2.5z"/><path d="M39 21c1.8-2 3.5-3.2 5.2-3.5.3-.1.5.1.4.4-.4 1.3-.5 2.5-.5 3.8 0 1.2.2 2.5.5 3.8.1.3-.1.5-.4.4-1.7-.3-3.4-1.5-5.2-3.5-.2-.3-.2-1.2 0-1.4z"/><circle cx="19" cy="22" r=".6" opacity=".4"/><circle cx="21" cy="20" r=".5" opacity=".3"/><circle cx="17" cy="21" r=".4" opacity=".3"/></svg>
